<svg aria-hidden="true" style="position: absolute; width: 0; height: 0; overflow: hidden;" version="1.1" xmlns="http://www.w3.org/2000/svg" xmlns:xlink="http://www.w3.org/1999/xlink">
<defs>
<symbol id="icon-heart" viewBox="0 0 32 32">
<path d="M16 30.583l-2.24-2.24c-8.32-7.36-13.76-12.32-13.76-18.4 0-4.96 3.84-8.8 8.8-8.8 2.72 0 5.44 1.28 7.2 3.36 1.76-2.080 4.48-3.36 7.2-3.36 4.96 0 8.8 3.84 8.8 8.8 0 6.080-5.44 11.040-13.76 18.4l-2.24 2.24z"></path>
</symbol>
<symbol id="icon-search" viewBox="0 0 32 32">
<path fill="none" stroke="#fff" style="stroke: var(--color2, #fff)" stroke-linejoin="round" stroke-linecap="round" stroke-miterlimit="4" stroke-width="2.6667" d="M14.667 25.333c5.891 0 10.667-4.776 10.667-10.667s-4.776-10.667-10.667-10.667c-5.891 0-10.667 4.776-10.667 10.667s4.776 10.667 10.667 10.667z"></path>
<path fill="none" stroke="#fff" style="stroke: var(--color2, #fff)" stroke-linejoin="round" stroke-linecap="round" stroke-miterlimit="4" stroke-width="2.6667" d="M28 28.001l-5.8-5.8"></path>
</symbol>
<symbol id="icon-film" viewBox="0 0 32 32">
<path fill="none" stroke="#818181" style="stroke: var(--color3, #818181)" stroke-linejoin="round" stroke-linecap="round" stroke-miterlimit="4" stroke-width="2.6667" d="M26.427 2.667h-20.853c-1.605 0-2.907 1.301-2.907 2.907v20.853c0 1.605 1.301 2.907 2.907 2.907h20.853c1.605 0 2.907-1.301 2.907-2.907v-20.853c0-1.605-1.301-2.907-2.907-2.907z"></path>
<path fill="none" stroke="#818181" style="stroke: var(--color3, #818181)" stroke-linejoin="round" stroke-linecap="round" stroke-miterlimit="4" stroke-width="2.6667" d="M9.333 2.667v26.667"></path>
<path fill="none" stroke="#818181" style="stroke: var(--color3, #818181)" stroke-linejoin="round" stroke-linecap="round" stroke-miterlimit="4" stroke-width="2.6667" d="M22.667 2.667v26.667"></path>
<path fill="none" stroke="#818181" style="stroke: var(--color3, #818181)" stroke-linejoin="round" stroke-linecap="round" stroke-miterlimit="4" stroke-width="2.6667" d="M2.667 16h26.667"></path>
<path fill="none" stroke="#818181" style="stroke: var(--color3, #818181)" stroke-linejoin="round" stroke-linecap="round" stroke-miterlimit="4" stroke-width="2.6667" d="M2.667 9.333h6.667"></path>
<path fill="none" stroke="#818181" style="stroke: var(--color3, #818181)" stroke-linejoin="round" stroke-linecap="round" stroke-miterlimit="4" stroke-width="2.6667" d="M2.667 22.667h6.667"></path>
<path fill="none" stroke="#818181" style="stroke: var(--color3, #818181)" stroke-linejoin="round" stroke-linecap="round" stroke-miterlimit="4" stroke-width="2.6667" d="M22.667 22.667h6.667"></path>
<path fill="none" stroke="#818181" style="stroke: var(--color3, #818181)" stroke-linejoin="round" stroke-linecap="round" stroke-miterlimit="4" stroke-width="2.6667" d="M22.667 9.333h6.667"></path>
</symbol>
<symbol id="icon-close" viewBox="0 0 32 32">
<path d="M26.667 7.303l-1.97-1.97-7.808 7.808-7.808-7.808-1.97 1.97 7.808 7.808-7.808 7.808 1.97 1.97 7.808-7.808 7.808 7.808 1.97-1.97-7.808-7.808 7.808-7.808z"></path>
</symbol>
<symbol id="icon-arrow-right" viewBox="0 0 32 32">
<path d="M19.414 27.414l10-10c0.781-0.781 0.781-2.047 0-2.828l-10-10c-0.781-0.781-2.047-0.781-2.828 0s-0.781 2.047 0 2.828l6.586 6.586h-19.172c-1.105 0-2 0.895-2 2s0.895 2 2 2h19.172l-6.586 6.586c-0.39 0.39-0.586 0.902-0.586 1.414s0.195 1.024 0.586 1.414c0.781 0.781 2.047 0.781 2.828 0z"></path>
</symbol>
<symbol id="icon-arrow-left" viewBox="0 0 32 32">
<path d="M12.586 27.414l-10-10c-0.781-0.781-0.781-2.047 0-2.828l10-10c0.781-0.781 2.047-0.781 2.828 0s0.781 2.047 0 2.828l-6.586 6.586h19.172c1.105 0 2 0.895 2 2s-0.895 2-2 2h-19.172l6.586 6.586c0.39 0.39 0.586 0.902 0.586 1.414s-0.195 1.024-0.586 1.414c-0.781 0.781-2.047 0.781-2.828 0z"></path>
</symbol>
<symbol id="icon-notificationCat" viewBox="0 0 27 32">
<path fill="var(--main-active-color)" style="fill: var(--color1, --main-active-color))" opacity="1" d="M11.763 12.195c-0.744 0.034-1.432-0.059-2.194-0.298-0.888-0.278-1.639-0.682-1.969-1.059-0.143-0.164-0.308-0.407-0.395-0.584l-0.055-0.112 0.082 0c0.045 0 0.114 0.002 0.154 0.003l0.072 0.003-0.099-0.116c-0.162-0.19-0.233-0.346-0.306-0.674-0.039-0.174-0.056-0.289-0.044-0.291 0.011-0.002 0.086 0.047 0.165 0.108s0.149 0.111 0.153 0.11c0.004-0.001-0.033-0.088-0.082-0.195-0.070-0.15-0.11-0.28-0.178-0.573-0.064-0.274-0.117-0.45-0.192-0.633-0.194-0.474-0.279-0.787-0.423-1.564-0.092-0.498-0.143-0.833-0.17-1.121-0.044-0.467-0.084-1.092-0.071-1.111 0.014-0.020 0.57-0.009 0.849 0.017 0.858 0.081 1.674 0.292 2.501 0.648l0.242 0.104 0.161-0.060c0.295-0.11 0.869-0.228 1.294-0.267 0.211-0.019 0.458-0.033 0.55-0.029l0.167 0.006 0.24-0.219c0.429-0.391 1.065-0.837 1.588-1.113 0.408-0.215 1.225-0.542 1.271-0.508 0.022 0.016 0.167 0.47 0.313 0.977 0.081 0.281 0.146 0.58 0.259 1.185 0.163 0.875 0.191 1.139 0.176 1.665-0.006 0.191 0.006 0.334 0.046 0.578 0.049 0.299 0.056 0.465 0.033 0.789-0.003 0.045 0.019 0.024 0.11-0.105l0.114-0.162 0.031 0.081c0.041 0.107 0.076 0.429 0.065 0.593-0.009 0.14-0.036 0.259-0.091 0.403l-0.034 0.089 0.081-0.029c0.044-0.016 0.107-0.039 0.139-0.051 0.057-0.022 0.059-0.020 0.057 0.055-0.002 0.128-0.083 0.495-0.149 0.679-0.083 0.23-0.351 0.621-0.621 0.903-0.72 0.753-1.628 1.33-2.59 1.645-0.26 0.085-0.991 0.222-1.251 0.234zM9.928 8.992c0.389-0.124 0.363-0.109 0.389-0.229 0.053-0.243 0.055-0.441 0.007-0.69-0.039-0.206-0.058-0.261-0.131-0.383-0.22-0.37-0.48-0.555-0.849-0.605-0.34-0.046-0.635 0.104-0.847 0.432-0.173 0.268-0.216 0.496-0.155 0.815 0.040 0.211 0.149 0.47 0.252 0.601 0.17 0.217 0.758 0.243 1.333 0.059zM9.527 8.781c-0.149-0.028-0.369-0.195-0.446-0.337-0.078-0.146-0.11-0.385-0.069-0.525 0.073-0.252 0.251-0.418 0.489-0.456 0.332-0.053 0.638 0.164 0.727 0.516 0.053 0.209 0.032 0.351-0.076 0.526-0.136 0.22-0.372 0.324-0.626 0.276zM14.226 8.278c0.067-0.031 0.17-0.095 0.23-0.142 0.090-0.071 0.112-0.103 0.132-0.194 0.060-0.276 0.043-0.617-0.040-0.834-0.166-0.43-0.634-0.759-1.030-0.725-0.489 0.042-0.824 0.406-0.899 0.978-0.018 0.138-0.014 0.184 0.039 0.41 0.058 0.247 0.112 0.376 0.244 0.588l0.053 0.084 0.234-0.001c0.129-0.001 0.259-0.001 0.289-0 0.123 0.002 0.631-0.11 0.748-0.164zM13.219 8.191c-0.138-0.028-0.307-0.145-0.403-0.277-0.112-0.156-0.161-0.405-0.114-0.582 0.068-0.258 0.245-0.423 0.495-0.461 0.183-0.028 0.282-0.004 0.445 0.106 0.163 0.111 0.253 0.248 0.291 0.449 0.071 0.366-0.126 0.682-0.47 0.754-0.098 0.020-0.182 0.024-0.244 0.012z"></path>
<path fill="#000" style="fill: var(--color2, #000)" opacity="0.792" d="M11.827 11.419c-0.485 0.025-0.972-0.12-1.317-0.392-0.309-0.244-0.486-0.51-0.566-0.85l-0.047-0.201 3.845-0.619 0.021 0.19c0.076 0.695-0.323 1.349-1.013 1.656-0.295 0.131-0.578 0.197-0.923 0.215zM12.485 11.065c0.138-0.047 0.375-0.165 0.4-0.2 0.021-0.028-0.121-0.137-0.266-0.204-0.175-0.081-0.372-0.101-0.616-0.062-0.345 0.054-0.553 0.171-0.713 0.399l-0.087 0.124 0.060 0.021c0.099 0.034 0.386 0.060 0.569 0.052 0.185-0.008 0.456-0.062 0.652-0.129zM11.565 9.458c-0.148-0.034-0.384-0.196-0.477-0.328-0.094-0.133-0.107-0.234-0.042-0.314 0.084-0.102 0.23-0.154 0.598-0.212 0.3-0.047 0.343-0.049 0.468-0.019 0.184 0.044 0.226 0.1 0.206 0.273-0.018 0.153-0.164 0.396-0.301 0.499-0.133 0.1-0.295 0.136-0.452 0.1zM9.588 8.78c-0.29-0.035-0.517-0.259-0.571-0.564-0.065-0.367 0.145-0.687 0.486-0.742 0.347-0.056 0.657 0.183 0.726 0.558 0.033 0.181 0.013 0.304-0.076 0.467-0.098 0.179-0.354 0.306-0.566 0.281zM13.311 8.192c-0.125-0.013-0.26-0.071-0.365-0.158-0.354-0.293-0.321-0.887 0.061-1.092 0.123-0.066 0.329-0.088 0.457-0.049 0.515 0.157 0.643 0.899 0.205 1.193-0.105 0.070-0.259 0.116-0.359 0.105z"></path>
<path fill="#fff" style="fill: var(--color3, #fff)" opacity="0.8623999999999999" d="M9.758 7.687c0.037 0.098-0.020 0.209-0.128 0.249s-0.225-0.008-0.262-0.106c-0.037-0.098 0.020-0.209 0.128-0.249s0.225 0.008 0.262 0.106z"></path>
<path fill="#fff" style="fill: var(--color3, #fff)" opacity="0.8623999999999999" d="M13.361 7.116c0.037 0.098-0.020 0.209-0.128 0.249s-0.225-0.008-0.262-0.106c-0.037-0.098 0.020-0.209 0.128-0.249s0.225 0.008 0.262 0.106z"></path>
<path fill="#fff" style="fill: var(--color3, #fff)" opacity="0.8623999999999999" d="M23.848 18.139c0 4.723-4.757 8.552-10.624 8.552s-10.624-3.829-10.624-8.552c0-4.723 4.757-8.552 10.624-8.552s10.624 3.829 10.624 8.552z"></path>
<path fill="var(--main-active-color)" style="fill: var(--color4, var(--main-active-color))" opacity="0.88" d="M3.474 29.331c0-0.009 0.050-0.086 0.111-0.172 0.132-0.186 0.14-0.184-0.411-0.104-0.2 0.029-0.38 0.053-0.4 0.053-0.070 0 0.464-0.772 1.028-1.485 0.688-0.87 1.043-1.441 1.198-1.928 0.094-0.296 0.114-0.435 0.117-0.852 0.004-0.482 0.001-0.502-0.103-0.606-0.575-0.578-0.835-0.856-1.036-1.109-0.886-1.115-1.419-2.255-1.692-3.622-0.11-0.552-0.11-2.056 0.001-2.628 0.305-1.578 1.086-3.056 2.257-4.269 2.277-2.361 5.925-3.642 9.613-3.375 4.082 0.295 7.631 2.423 9.2 5.516 0.258 0.509 0.736 1.717 0.863 2.181 0.237 0.868 0.305 2.049 0.171 2.948-0.435 2.903-2.676 5.472-5.908 6.773-0.807 0.325-1.321 0.482-2.138 0.653-1.039 0.217-1.517 0.264-2.722 0.264-1.085 0-1.547-0.037-2.401-0.193-0.52-0.095-1.286-0.291-1.698-0.435l-0.351-0.122-0.177 0.241c-0.766 1.047-2.026 1.679-4.11 2.062-0.607 0.112-1.413 0.231-1.413 0.21zM4.545 28.395c1.591-0.296 2.617-0.706 3.365-1.344 0.49-0.418 0.772-0.781 1.044-1.347 0.054-0.112 0.109-0.203 0.122-0.203 0.058 0 0.223 0.159 0.223 0.215 0 0.034-0.038 0.135-0.085 0.225l-0.085 0.163 0.095 0.030c1.897 0.59 3.84 0.75 5.813 0.478 4.306-0.592 7.793-3.326 8.648-6.782 0.279-1.126 0.253-2.411-0.070-3.544-0.686-2.402-2.717-4.507-5.464-5.662-1.173-0.493-2.27-0.771-3.629-0.919-0.762-0.083-2.421-0.056-3.148 0.051-3.818 0.562-6.881 2.604-8.232 5.486-0.397 0.846-0.602 1.709-0.641 2.689-0.051 1.274 0.232 2.474 0.857 3.633 0.341 0.632 0.916 1.406 1.414 1.901l0.107 0.106 0.124-0.097c0.15-0.118 0.167-0.119 0.195-0.018 0.232 0.848 0.289 1.364 0.207 1.871-0.138 0.85-0.428 1.393-1.403 2.623-0.244 0.308-0.443 0.568-0.443 0.579 0 0.030 0.352-0.018 0.985-0.136z"></path>
<text y="16" x="5" font-size="1.5" font-weight="var(--text-bold)" 
    font-family="var(--text-main)">
        Your list is empty!
        <tspan y="19" x="5">Please, add movies to list!</tspan>
    </text>
</symbol>
</defs>
</svg>
